<svg id="b9c61241-b9d6-49f3-86cf-ef620b7e3353" data-name="Layer 1" xmlns="http://www.w3.org/2000/svg" viewBox="0 0 30.5 38.57"><defs><style>.a8e6fe16-daaa-4122-9175-d49bf82e9ff8{fill:#c9c9c9;}.b6e29a1a-b828-46dc-b3b6-ea05a61737c5,.ec3b7403-7b3e-4cd8-a353-0f5aa2658449{fill:#faba03;}.ec3b7403-7b3e-4cd8-a353-0f5aa2658449{stroke:#262727;stroke-linecap:round;stroke-linejoin:round;stroke-width:1.5px;}.b398f30f-c9fb-44f0-9526-ea0d5a98b74d{fill:#fff;}.a9f5dd23-6517-4df6-935d-f34cb467817b{fill:#f17d09;}</style></defs><g id="b7c5b3ec-bbcf-4d81-b11b-25d30dc4ef37" data-name="ic pin"><ellipse id="ae77e436-5bcc-485c-8418-5ac5eb242fba" data-name="타원 13" class="a8e6fe16-daaa-4122-9175-d49bf82e9ff8" cx="15.25" cy="35.57" rx="10.5" ry="3"/><g id="a47e3365-3d23-427e-b183-f6dc7a5d2b8d" data-name="그룹 30"><g id="af4ffcce-edb4-4ee0-9299-34d7abb82ad1" data-name="그룹 29"><path id="aaeba9cc-427d-42ed-86f6-ecbce7361335" data-name="패스 52" class="ec3b7403-7b3e-4cd8-a353-0f5aa2658449" d="M29.75,15.25A14.5,14.5,0,1,0,12.18,29.42l3.07,6.13,3.07-6.13A14.49,14.49,0,0,0,29.75,15.25Z" transform="translate(0 0)"/><circle id="f8f45d56-4b71-4a83-b105-522c16a59f08" data-name="타원 12" class="b398f30f-c9fb-44f0-9526-ea0d5a98b74d" cx="15.25" cy="15.06" r="10.44"/><g id="bdbcf07e-6803-4c72-bc47-077f4a147ab2" data-name="그룹 28"><path id="b6499ed0-e20a-434a-b1d1-279d962bd2de" data-name="패스 53" class="a9f5dd23-6517-4df6-935d-f34cb467817b" d="M23,10.78a.14.14,0,0,0-.12-.06h-1.9a.14.14,0,0,0-.14.11L19,18.76a.14.14,0,0,0,.11.17H21a.13.13,0,0,0,.14-.11L23,10.9A.16.16,0,0,0,23,10.78Z" transform="translate(0 0)"/><g id="f57a3d43-b841-4e29-98ba-b2344e1e7e9a" data-name="그룹 27"><path id="b2268725-7474-4351-bab4-2a9e0740cb01" data-name="패스 54" class="b6e29a1a-b828-46dc-b3b6-ea05a61737c5" d="M15.86,10.83a.16.16,0,0,0-.14-.11h-1.9a.15.15,0,0,0-.15.14v0l1.85,7.92a.15.15,0,0,0,.15.11h1.9a.14.14,0,0,0,.14-.14v0Z" transform="translate(0 0)"/><path id="f7222f10-1685-47ab-90b7-48150c431a8c" data-name="패스 55" class="b6e29a1a-b828-46dc-b3b6-ea05a61737c5" d="M12.46,10.83a.16.16,0,0,0-.15-.11h-1.9a.14.14,0,0,0-.11.06.13.13,0,0,0,0,.12l1.85,7.92a.15.15,0,0,0,.14.11h1.9a.14.14,0,0,0,.15-.14v0Z" transform="translate(0 0)"/><path id="afb688e8-2ea3-48e9-84c9-586e6149be34" data-name="패스 56" class="b6e29a1a-b828-46dc-b3b6-ea05a61737c5" d="M9.56,13.14H7.66a.15.15,0,0,0-.15.15v0L8.34,17a.14.14,0,0,0,.14.11h1.9a.11.11,0,0,0,.12-.05.13.13,0,0,0,0-.12L9.7,13.26A.16.16,0,0,0,9.56,13.14Z" transform="translate(0 0)"/><path id="b0797398-0f2d-4afd-a80d-014c5b9204f8" data-name="패스 57" class="b6e29a1a-b828-46dc-b3b6-ea05a61737c5" d="M21.14,18.76l-1.86-7.92a.14.14,0,0,0-.14-.12h-1.9a.14.14,0,0,0-.11.06.13.13,0,0,0,0,.12L19,18.82a.14.14,0,0,0,.14.11H21a.17.17,0,0,0,.12-.05A.14.14,0,0,0,21.14,18.76Z" transform="translate(0 0)"/></g></g></g></g></g></svg>