<?xml version="1.0" encoding="utf-8"?>
<!-- Generator: Adobe Illustrator 26.0.1, SVG Export Plug-In . SVG Version: 6.00 Build 0)  -->
<svg version="1.1" id="ic_battery_a_off" xmlns="http://www.w3.org/2000/svg" xmlns:xlink="http://www.w3.org/1999/xlink" x="0px"
	 y="0px" viewBox="0 0 84 84" style="enable-background:new 0 0 84 84;" xml:space="preserve">
<style type="text/css">
	.st0{fill:none;}
	.st1{fill:none;stroke:#231F20;stroke-width:3;}
	.st2{fill:#231F20;}
</style>
<g id="타원_34">
	<circle class="st0" cx="42" cy="42" r="42"/>
	<circle class="st1" cx="42" cy="42" r="40.5"/>
</g>
<path class="st2" d="M42,8C23.2,8,8,23.2,8,42c0,18.8,15.2,34,34,34s34-15.2,34-34C76,23.2,60.8,8,42,8z M26,42c-5,0-9-3.8-9-8.5
	s4-8.5,9-8.5s9,3.8,9,8.5S31,42,26,42z M42,67c-5,0-9-4-9-9s4-9,9-9s9,4,9,9S47,67,42,67z M58,42c-5,0-9-3.8-9-8.5s4-8.5,9-8.5
	s9,3.8,9,8.5S63,42,58,42z"/>
</svg>
