<svg id="eb41cd10-a67c-4163-af54-f97afe26d69b" data-name="Layer 1" xmlns="http://www.w3.org/2000/svg" viewBox="0 0 30.5 38.57"><defs><style>.a20d0eb0-81b5-48ba-808c-0a9042dea92c{fill:#c9c9c9;}.aba13505-4a39-42e8-8429-a977261d3f17,.ea85620c-813f-44e8-9db0-466622fffce7{fill:#7a7a7a;}.ea85620c-813f-44e8-9db0-466622fffce7{stroke:#262727;stroke-linecap:round;stroke-linejoin:round;stroke-width:1.5px;}.f1edae26-9483-4acf-808c-50c07d952563{fill:#fff;}.a676a3e1-26ca-457c-9c8c-01ad2de5960c{fill:#aaa;}</style></defs><g id="a1321f47-2c68-4fcf-8234-548965b62d61" data-name="ic pin"><ellipse id="e481759a-9cca-467d-8bf1-26890e062960" data-name="타원 13" class="a20d0eb0-81b5-48ba-808c-0a9042dea92c" cx="15.25" cy="35.57" rx="10.5" ry="3"/><g id="f1886168-0d59-427e-bed9-d230f8463efa" data-name="그룹 30"><g id="e1519381-5064-490e-a2fb-9a0f8a820f7d" data-name="그룹 29"><path id="ab053c35-89f5-458f-8e42-e7be85e3ea2b" data-name="패스 52" class="ea85620c-813f-44e8-9db0-466622fffce7" d="M29.75,15.25A14.5,14.5,0,1,0,12.18,29.42l3.07,6.13,3.07-6.13A14.49,14.49,0,0,0,29.75,15.25Z" transform="translate(0 0)"/><circle id="e9b2daa8-3d88-402e-9ef9-4f453791a342" data-name="타원 12" class="f1edae26-9483-4acf-808c-50c07d952563" cx="15.25" cy="15.06" r="10.44"/><g id="bb638532-4b98-4b64-b5c5-85e607e5cf47" data-name="그룹 28"><path id="b5b7e8e7-ae4f-4a1e-bbce-c1c819115120" data-name="패스 53" class="aba13505-4a39-42e8-8429-a977261d3f17" d="M23,10.78a.14.14,0,0,0-.12-.06h-1.9a.14.14,0,0,0-.14.11L19,18.76a.14.14,0,0,0,.11.17H21a.13.13,0,0,0,.14-.11L23,10.9A.16.16,0,0,0,23,10.78Z" transform="translate(0 0)"/><g id="b9f71a3f-ea61-4029-8e7d-5f5fd0462435" data-name="그룹 27"><path id="af4e77a3-e765-4a1b-8a82-47acaed45488" data-name="패스 54" class="a676a3e1-26ca-457c-9c8c-01ad2de5960c" d="M15.86,10.83a.16.16,0,0,0-.14-.11h-1.9a.15.15,0,0,0-.15.14v0l1.85,7.92a.15.15,0,0,0,.15.11h1.9a.14.14,0,0,0,.14-.14v0Z" transform="translate(0 0)"/><path id="a599ed19-8d76-4e21-9bc0-390d961f1c6a" data-name="패스 55" class="a676a3e1-26ca-457c-9c8c-01ad2de5960c" d="M12.46,10.83a.16.16,0,0,0-.15-.11h-1.9a.14.14,0,0,0-.11.06.13.13,0,0,0,0,.12l1.85,7.92a.15.15,0,0,0,.14.11h1.9a.14.14,0,0,0,.15-.14v0Z" transform="translate(0 0)"/><path id="ec29e0c9-35b2-41b9-9946-296e8b3799c1" data-name="패스 56" class="a676a3e1-26ca-457c-9c8c-01ad2de5960c" d="M9.56,13.14H7.66a.15.15,0,0,0-.15.15v0L8.34,17a.14.14,0,0,0,.14.11h1.9a.11.11,0,0,0,.12-.05.13.13,0,0,0,0-.12L9.7,13.26A.16.16,0,0,0,9.56,13.14Z" transform="translate(0 0)"/><path id="e6548cff-7048-4548-b1bd-d11615b94dd4" data-name="패스 57" class="a676a3e1-26ca-457c-9c8c-01ad2de5960c" d="M21.14,18.76l-1.86-7.92a.14.14,0,0,0-.14-.12h-1.9a.14.14,0,0,0-.11.06.13.13,0,0,0,0,.12L19,18.82a.14.14,0,0,0,.14.11H21a.17.17,0,0,0,.12-.05A.14.14,0,0,0,21.14,18.76Z" transform="translate(0 0)"/></g></g></g></g></g></svg>