<?xml version="1.0" encoding="utf-8"?>
<!-- Generator: Adobe Illustrator 26.0.1, SVG Export Plug-In . SVG Version: 6.00 Build 0)  -->
<svg version="1.1" id="ic_notice" xmlns="http://www.w3.org/2000/svg" xmlns:xlink="http://www.w3.org/1999/xlink" x="0px" y="0px"
	 viewBox="0 0 60 60" style="enable-background:new 0 0 60 60;" xml:space="preserve">
<style type="text/css">
	.st0{fill:none;}
	.st1{fill:#231F20;stroke:#231F20;}
</style>
<path id="사각형_1056" class="st0" d="M0,0h60v60H0V0z"/>
<g id="그룹_2202" transform="translate(-759.818 -760.31)">
	<path id="패스_1180" class="st1" d="M783.8,785.6c-1.3,0-2.4,1.1-2.4,2.4s1.1,2.4,2.4,2.4c1.3,0,2.4-1.1,2.4-2.4c0,0,0,0,0,0
		C786.1,786.7,785.1,785.6,783.8,785.6z M783.8,789.2c-0.7,0-1.2-0.5-1.2-1.2s0.5-1.2,1.2-1.2s1.2,0.5,1.2,1.2c0,0,0,0,0,0
		C785,788.7,784.4,789.2,783.8,789.2z"/>
	<path id="패스_1181" class="st1" d="M793.4,785.6c-1.3,0-2.4,1.1-2.4,2.4s1.1,2.4,2.4,2.4c1.3,0,2.4-1.1,2.4-2.4c0,0,0,0,0,0
		C795.7,786.7,794.7,785.6,793.4,785.6z M793.4,789.2c-0.7,0-1.2-0.5-1.2-1.2s0.5-1.2,1.2-1.2s1.2,0.5,1.2,1.2c0,0,0,0,0,0
		C794.5,788.7,794,789.2,793.4,789.2z"/>
	<path id="패스_1182" class="st1" d="M803,785.6c-1.3,0-2.4,1.1-2.4,2.4s1.1,2.4,2.4,2.4c1.3,0,2.4-1.1,2.4-2.4c0,0,0,0,0,0
		C805.3,786.7,804.3,785.6,803,785.6z M803,789.2c-0.7,0-1.2-0.5-1.2-1.2s0.5-1.2,1.2-1.2s1.2,0.5,1.2,1.2c0,0,0,0,0,0
		C804.1,788.7,803.6,789.2,803,789.2z"/>
	<path id="패스_1183" class="st1" d="M799.9,777.3h-13c-3,0-5.8,1.2-7.9,3.3c-2,2-3.1,4.7-3.1,7.6c0,0.2,0,0.4,0,0.6
		c-3.5,0.7-6.1,3.8-6.1,7.3c0,3.3,2.1,6.2,5.2,7.2c1.5,0.5,3,1.3,4.2,2.3l3.7,2.8l-1.2-2.3c-0.4-0.8-0.1-1.8,0.7-2.2
		c0.2-0.1,0.5-0.2,0.7-0.2h3.4c2.9,0,5.5-1.6,6.8-4.2c0.2,0.1,0.3,0.3,0.4,0.5c0.5,0.8,0.5,1.8,0.1,2.6l-1.2,2.3l4.4-3.3
		c1.9-1.4,4-2.6,6.2-3.3c4.5-1.4,7.5-5.6,7.5-10.2C810.7,782,805.8,777.2,799.9,777.3L799.9,777.3z M786.6,802.5h-3.4
		c-1.4,0-2.6,1.1-2.8,2.5l-0.5-0.3c-1.4-1.1-2.9-1.9-4.6-2.4c-2.6-0.8-4.4-3.3-4.4-6.1c0.1-3,2.2-5.6,5.1-6.2
		c1,5.1,5.4,8.7,10.5,8.8h4.9c0.3,0,0.6,0,0.8,0.1C791.3,801.1,789.1,802.5,786.6,802.5L786.6,802.5z M803,797.1
		c-2.4,0.8-4.6,2-6.6,3.5l-1.1,0.8c0-2.1-1.7-3.8-3.8-3.9c0,0,0,0,0,0h-4.9c-5.2,0-9.4-4.2-9.5-9.3c0-2.5,0.9-4.9,2.7-6.7
		c1.9-1.9,4.4-3,7.1-3h13c5.3-0.1,9.7,4.2,9.8,9.5C809.7,792.1,807,795.8,803,797.1L803,797.1z"/>
</g>
</svg>
