<?xml version="1.0" encoding="utf-8"?>
<!-- Generator: Adobe Illustrator 26.0.1, SVG Export Plug-In . SVG Version: 6.00 Build 0)  -->
<svg version="1.1" id="img_battery" xmlns="http://www.w3.org/2000/svg" xmlns:xlink="http://www.w3.org/1999/xlink" x="0px"
	 y="0px" viewBox="0 0 200 93.7" style="enable-background:new 0 0 200 93.7;" xml:space="preserve">
<style type="text/css">
	.st0{fill:#231F20;}
</style>
<g id="그룹_2188" transform="translate(-517.556 -963.121)">
	<path id="패스_1140" class="st0" d="M694.6,1052.1c12.7,0,23-10.3,23-23c0-12.7-10.3-23-23-23H694v-0.4c0-1.7-1.4-3-3.1-3
		c-1.6,0-2.9,1.3-3,3v0.4h-1.3v-1.1c0-1.7-1.4-3-3.1-3c-1.6,0-2.9,1.3-3,3v1.1h-1.3v-1.7c0-1.7-1.3-3.1-3-3.1c-1.7,0-3.1,1.3-3.1,3
		c0,0,0,0.1,0,0.1v1.7h-1.5v-4.1c0-2.1-1.7-3.8-3.8-3.8h-6.4v23.4h6.4c2.1,0,3.8-1.7,3.8-3.8v-4.1h1.5v1.7c0,1.7,1.3,3.1,3,3.1
		c1.7,0,3.1-1.3,3.1-3c0,0,0-0.1,0-0.1v-1.7h1.3v1.1c0,1.7,1.3,3.1,3,3.1c1.7,0,3.1-1.3,3.1-3c0,0,0-0.1,0-0.1v-1.1h1.3v0.4
		c0,1.7,1.3,3.1,3,3.1c1.7,0,3.1-1.3,3.1-3c0,0,0-0.1,0-0.1v-0.4h0.6c8.5,0,15.4,6.9,15.4,15.4c0,8.5-6.9,15.4-15.4,15.4l0,0h-34.3
		v7.6L694.6,1052.1z"/>
	<path id="패스_1141" class="st0" d="M650,1044.5v-0.6c0-1.7-1.4-3-3.1-3c-1.6,0-2.9,1.3-3,3v0.6h-1.3v-1.2c0-1.7-1.3-3.1-3-3.1
		c-1.7,0-3.1,1.3-3.1,3c0,0,0,0.1,0,0.1v1.2h-1.3v-1.8c0-1.7-1.3-3.1-3-3.1c-1.7,0-3.1,1.3-3.1,3c0,0,0,0.1,0,0.1v1.8h-1.7v-1
		c0-0.1,0-0.1,0-0.2v10c0-0.1,0-0.1,0-0.2v-1h1.7v1.5c0,1.7,1.3,3.1,3,3.1c1.7,0,3.1-1.3,3.1-3c0,0,0-0.1,0-0.1v-1.5h1.3v0.9
		c0,1.7,1.3,3.1,3,3.1c1.7,0,3.1-1.3,3.1-3c0,0,0-0.1,0-0.1v-0.9h1.3v0.3c0,1.7,1.4,3,3.1,3c1.6,0,2.9-1.3,3-3v-0.3h12.4v-7.6H650z"
		/>
	<path id="패스_1142" class="st0" d="M623.7,1039.7h-9.5v17.2h9.5c2,0,3.7-1.6,3.8-3.6v-10
		C627.4,1041.3,625.7,1039.7,623.7,1039.7z"/>
	<path id="패스_1143" class="st0" d="M608.2,1039.7h9.5v17.2h-9.5c-2,0-3.7-1.6-3.8-3.6v-10
		C604.5,1041.3,606.2,1039.7,608.2,1039.7z"/>
	<path id="패스_1144" class="st0" d="M600.9,1042.2h9.5v10.9h-9.5c-2,0-3.7-1.6-3.8-3.6v-3.7
		C597.2,1043.8,598.9,1042.2,600.9,1042.2L600.9,1042.2z"/>
</g>
<path class="st0" d="M144,0H4C1.8,0,0,1.8,0,4v63c0,2.2,1.8,4,4,4h140c2.2,0,4-1.8,4-4V4C148,1.8,146.2,0,144,0z M69.9,58.8V39.1H63
	l14.2-26.6l0,19.4h7.2L69.9,58.8z"/>
</svg>
